<?xml version="1.0" encoding="UTF-8"?>
<svg xmlns="http://www.w3.org/2000/svg" xmlns:xlink="http://www.w3.org/1999/xlink" width="200px" height="200px" viewBox="0 0 200 200" version="1.1">
<defs>
<clipPath id="clip1">
  <path d="M 37.023438 38.828125 L 157.980469 38.828125 L 157.980469 113 L 37.023438 113 Z M 37.023438 38.828125 "/>
</clipPath>
<clipPath id="clip2">
  <path d="M 154.519531 66.488281 L 162.976562 66.488281 L 162.976562 110.636719 L 154.519531 110.636719 Z M 154.519531 66.488281 "/>
</clipPath>
</defs>
<g id="surface1">
<g clip-path="url(#clip1)" clip-rule="nonzero">
<path style=" stroke:none;fill-rule:nonzero;fill:rgb(1.960784%,27.45098%,18.431373%);fill-opacity:1;" d="M 155.988281 65.167969 L 127.453125 65.167969 C 122.238281 65.070312 116.921875 65.363281 111.707031 64.773438 C 108.460938 64.480469 105.214844 64.183594 101.867188 63.886719 C 101.375 64.675781 99.898438 65.265625 98.128906 65.265625 C 95.964844 65.265625 94.191406 64.382812 94.191406 63.296875 C 94.191406 62.214844 95.964844 61.332031 98.128906 61.332031 C 99.898438 61.332031 101.277344 61.921875 101.867188 62.707031 C 105.113281 62.414062 108.363281 62.019531 111.707031 61.824219 C 116.921875 61.132812 122.238281 61.429688 127.453125 61.429688 L 157.855469 61.429688 L 153.527344 59.460938 L 98.816406 39.089844 C 98.421875 38.894531 97.929688 38.894531 97.4375 39.089844 L 38.300781 60.835938 C 37.511719 61.132812 37.019531 61.820312 37.019531 62.707031 C 37.019531 63.59375 37.515625 64.28125 38.300781 64.578125 L 62.605469 73.53125 L 62.605469 97.050781 C 62.605469 98.132812 62.605469 100.097656 77.660156 106.59375 C 81.105469 108.070312 92.617188 112.890625 97.832031 112.890625 C 103.148438 112.890625 114.855469 108.070312 118.300781 106.59375 C 133.554688 100.097656 133.554688 98.132812 133.554688 97.050781 L 133.554688 73.53125 L 150.871094 67.136719 L 155.59375 65.5625 Z M 155.988281 65.167969 "/>
</g>
<path style=" stroke:none;fill-rule:nonzero;fill:rgb(1.960784%,27.45098%,18.431373%);fill-opacity:1;" d="M 149.101562 134.738281 C 148.214844 133.457031 146.445312 132.277344 144.96875 131.980469 C 104.429688 123.125 51.78125 104.039062 51.289062 103.9375 C 51.191406 103.9375 50.996094 103.835938 50.894531 103.835938 C 50.699219 103.835938 44.992188 104.429688 42.925781 111.21875 C 42.136719 113.972656 41.84375 119.1875 45.976562 122.042969 C 45.089844 122.4375 43.910156 123.027344 42.632812 123.320312 C 42.238281 123.417969 41.941406 123.8125 41.941406 124.304688 C 41.941406 124.796875 42.335938 125.191406 42.730469 125.191406 C 42.925781 125.191406 59.851562 128.242188 78.742188 134.144531 L 61.917969 139.457031 L 71.070312 140.046875 L 70.675781 144.671875 L 81.695312 139.457031 L 78.742188 148.707031 L 84.941406 147.132812 L 89.960938 150.578125 L 90.75 138.179688 C 109.839844 145.167969 127.257812 153.726562 136.109375 160.714844 C 136.308594 160.8125 136.503906 160.910156 136.703125 160.910156 C 136.898438 160.910156 137.09375 160.8125 137.292969 160.714844 C 137.292969 160.714844 141.621094 157.367188 144.964844 154.710938 C 145.066406 154.613281 145.164062 154.515625 145.164062 154.414062 C 146.539062 153.234375 147.523438 151.660156 148.214844 150.085938 C 150.476562 145.558594 151.855469 138.671875 149.097656 134.734375 Z M 141.621094 140.445312 C 142.410156 139.65625 143.589844 138.773438 144.574219 138.773438 C 145.066406 138.773438 145.457031 138.96875 145.851562 139.460938 C 147.328125 141.132812 146.441406 145.757812 145.066406 147.824219 C 144.476562 148.710938 143.589844 149.300781 142.800781 149.496094 C 142.308594 149.597656 141.917969 149.496094 141.621094 149.203125 C 141.03125 148.710938 140.734375 147.824219 140.832031 146.839844 C 140.933594 145.5625 141.621094 144.480469 142.40625 144.085938 L 142.507812 144.085938 C 142.605469 144.183594 142.605469 144.480469 142.507812 144.875 C 142.40625 145.367188 142.703125 145.957031 143.195312 146.054688 C 143.6875 146.25 144.277344 145.859375 144.375 145.367188 C 144.671875 144.183594 144.476562 143.101562 143.6875 142.511719 C 143.390625 142.316406 142.605469 141.824219 141.425781 142.414062 C 140.144531 143.101562 139.257812 144.480469 138.867188 146.054688 C 139.457031 143.691406 140.34375 141.722656 141.621094 140.445312 Z M 86.125 118.402344 C 84.058594 119.089844 82.1875 120.863281 80.910156 123.421875 C 80.320312 124.601562 78.941406 127.652344 79.53125 130.210938 C 79.628906 130.703125 79.335938 131.292969 78.746094 131.390625 L 78.546875 131.390625 C 78.054688 131.390625 77.664062 131.097656 77.5625 130.605469 C 76.875 127.355469 78.449219 123.914062 79.136719 122.535156 C 80.613281 119.582031 82.976562 117.417969 85.4375 116.53125 C 85.929688 116.335938 86.519531 116.628906 86.714844 117.121094 C 86.914062 117.714844 86.617188 118.304688 86.125 118.402344 Z M 98.917969 122.4375 C 96.851562 123.125 94.882812 124.898438 93.503906 127.457031 C 92.519531 129.324219 91.339844 132.179688 92.027344 134.441406 C 92.226562 134.933594 91.929688 135.523438 91.4375 135.722656 C 91.339844 135.722656 91.242188 135.820312 91.144531 135.820312 C 90.75 135.820312 90.355469 135.523438 90.257812 135.132812 C 89.273438 132.179688 90.652344 128.832031 91.832031 126.570312 C 93.40625 123.519531 95.769531 121.355469 98.425781 120.566406 C 98.917969 120.371094 99.507812 120.667969 99.605469 121.257812 C 99.703125 121.847656 99.507812 122.339844 98.917969 122.4375 Z M 136.902344 158.746094 C 130.011719 153.433594 119.878906 148.214844 109.347656 143.492188 C 118.992188 147.132812 129.421875 151.367188 140.246094 155.992188 L 140.34375 155.992188 C 138.867188 157.269531 137.589844 158.253906 136.902344 158.746094 Z M 146.640625 149.398438 C 145.855469 151.167969 143.691406 154.417969 141.230469 154.121094 C 139.953125 154.023438 139.359375 152.25 139.066406 151.167969 C 138.671875 149.59375 138.671875 147.726562 139.066406 145.855469 C 139.066406 146.050781 138.96875 146.25 138.96875 146.445312 C 138.769531 148.117188 139.359375 149.691406 140.445312 150.578125 C 141.230469 151.167969 142.214844 151.464844 143.199219 151.265625 C 144.574219 151.070312 145.953125 150.085938 146.839844 148.707031 C 146.839844 148.609375 146.9375 148.609375 146.9375 148.511719 C 146.839844 148.90625 146.742188 149.199219 146.640625 149.398438 Z M 146.640625 149.398438 "/>
<g clip-path="url(#clip2)" clip-rule="nonzero">
<path style=" stroke:none;fill-rule:nonzero;fill:rgb(1.960784%,27.45098%,18.431373%);fill-opacity:1;" d="M 161.992188 94.785156 L 161.5 90.847656 L 160.8125 86.910156 C 160.515625 85.433594 160.316406 84.058594 160.023438 82.582031 C 161.597656 82.089844 162.777344 80.613281 162.777344 78.84375 C 162.777344 76.972656 161.5 75.398438 159.726562 75.003906 C 159.828125 74.808594 160.023438 74.710938 160.121094 74.511719 L 160.710938 73.726562 C 161.007812 73.429688 160.710938 73.132812 160.8125 72.9375 L 160.8125 66.640625 L 156.875 68.214844 L 156.875 72.839844 C 156.972656 73.132812 156.679688 73.429688 156.972656 73.625 L 157.5625 74.414062 C 157.660156 74.609375 157.859375 74.707031 157.957031 74.90625 C 156.183594 75.300781 154.90625 76.875 154.90625 78.742188 C 154.90625 80.515625 156.085938 81.992188 157.660156 82.484375 C 157.367188 83.960938 157.070312 85.335938 156.875 86.8125 L 156.183594 90.75 L 155.691406 94.6875 C 155.496094 95.964844 155.199219 97.34375 154.90625 98.621094 C 154.609375 99.902344 154.609375 101.277344 154.90625 102.558594 C 155.101562 103.835938 155.496094 105.214844 156.085938 106.496094 C 156.675781 107.773438 157.367188 109.152344 158.449219 110.433594 L 159.234375 110.433594 C 160.316406 109.152344 161.105469 107.773438 161.597656 106.496094 C 162.1875 105.214844 162.480469 103.839844 162.777344 102.558594 C 162.972656 101.28125 162.972656 99.902344 162.777344 98.621094 C 162.582031 97.34375 162.1875 96.164062 161.992188 94.785156 Z M 161.992188 94.785156 "/>
</g>
</g>
</svg>
