<?xml version="1.0" encoding="UTF-8"?>
<svg width="752pt" height="752pt" version="1.1" viewBox="0 0 752 752" xmlns="http://www.w3.org/2000/svg">
 <defs>
  <clipPath id="b">
   <path d="m139.21 146h454.79v279h-454.79z"/>
  </clipPath>
  <clipPath id="a">
   <path d="m581 250h31.793v166h-31.793z"/>
  </clipPath>
 </defs>
 <g clip-path="url(#b)">
  <path d="m586.52 245.03h-107.3c-19.609-0.37109-39.59 0.73828-59.199-1.4805-12.211-1.1094-24.418-2.2188-37-3.3281-1.8516 2.9609-7.3984 5.1797-14.059 5.1797-8.1406 0-14.801-3.3281-14.801-7.3984s6.6602-7.3984 14.801-7.3984c6.6602 0 11.84 2.2188 14.059 5.1797 12.211-1.1094 24.418-2.5898 37-3.3281 19.609-2.5898 39.59-1.4805 59.199-1.4805h114.32l-16.281-7.3984-205.71-76.594c-1.4805-0.73828-3.3281-0.73828-5.1797 0l-222.36 81.766c-2.9609 1.1094-4.8086 3.6992-4.8086 7.0312 0 3.3281 1.8516 5.918 4.8086 7.0312l91.387 33.668v88.426c0 4.0703 0 11.469 56.609 35.887 12.949 5.5508 56.238 23.68 75.848 23.68 19.98 0 64.008-18.129 76.957-23.68 57.348-24.418 57.348-31.82 57.348-35.887v-88.426l65.117-24.051 17.758-5.918z" fill="#05462f"/>
 </g>
 <path d="m560.62 506.61c-3.3281-4.8086-9.9883-9.25-15.539-10.359-152.43-33.297-350.38-105.07-352.23-105.45-0.37109 0-1.1094-0.37109-1.4805-0.37109-0.73828 0-22.199 2.2188-29.969 27.75-2.9609 10.359-4.0703 29.969 11.469 40.699-3.3281 1.4805-7.7695 3.6992-12.578 4.8086-1.4805 0.37109-2.5898 1.8516-2.5898 3.6992 0 1.8516 1.4805 3.3281 2.9609 3.3281 0.73828 0 64.379 11.469 135.41 33.668l-63.266 19.98 34.41 2.2188-1.4805 17.391 41.438-19.609-11.098 34.777 23.309-5.918 18.871 12.949 2.9609-46.617c71.777 26.27 137.27 58.457 170.56 84.727 0.73828 0.37109 1.4805 0.73828 2.2188 0.73828s1.4805-0.37109 2.2188-0.73828c0 0 16.281-12.578 28.859-22.57 0.37109-0.37109 0.73828-0.73828 0.73828-1.1094 5.1797-4.4414 8.8789-10.359 11.469-16.281 8.5078-17.016 13.688-42.914 3.3281-57.715zm-28.121 21.461c2.9609-2.9609 7.3984-6.2891 11.098-6.2891 1.8516 0 3.3281 0.73828 4.8086 2.5898 5.5508 6.2891 2.2188 23.68-2.9609 31.449-2.2188 3.3281-5.5508 5.5508-8.5078 6.2891-1.8516 0.37109-3.3281 0-4.4414-1.1094-2.2188-1.8516-3.3281-5.1797-2.9609-8.8789 0.37109-4.8086 2.9609-8.8789 5.918-10.359h0.37109c0.37109 0.37109 0.37109 1.4805 0 2.9609-0.37109 1.8516 0.73828 4.0703 2.5898 4.4414 1.8516 0.73828 4.0703-0.73828 4.4414-2.5898 1.1094-4.4414 0.37109-8.5078-2.5898-10.73-1.1094-0.73828-4.0703-2.5898-8.5078-0.37109-4.8086 2.5898-8.1406 7.7695-9.6211 13.688 2.2266-8.8828 5.5547-16.281 10.363-21.09zm-208.67-82.879c-7.7695 2.5898-14.801 9.25-19.609 18.871-2.2188 4.4414-7.3984 15.91-5.1797 25.527 0.37109 1.8516-0.73828 4.0703-2.9609 4.4414h-0.73828c-1.8516 0-3.3281-1.1094-3.6992-2.9609-2.5898-12.211 3.3281-25.16 5.918-30.34 5.5508-11.098 14.43-19.238 23.68-22.57 1.8516-0.73828 4.0703 0.37109 4.8086 2.2188 0.74219 2.2227-0.36719 4.4453-2.2188 4.8125zm48.098 15.172c-7.7695 2.5898-15.168 9.25-20.348 18.871-3.6992 7.0312-8.1406 17.758-5.5508 26.27 0.73828 1.8516-0.37109 4.0703-2.2188 4.8086-0.37109 0-0.73828 0.37109-1.1094 0.37109-1.4805 0-2.9609-1.1094-3.3281-2.5898-3.6992-11.098 1.4805-23.68 5.918-32.188 5.918-11.469 14.801-19.609 24.789-22.57 1.8516-0.73828 4.0703 0.37109 4.4414 2.5898 0.36719 2.2148-0.37109 4.0664-2.5938 4.4375zm142.82 136.52c-25.898-19.98-64.008-39.59-103.6-57.348 36.258 13.688 75.477 29.598 116.18 46.988h0.37109c-5.5508 4.8086-10.359 8.5078-12.949 10.359zm36.629-35.148c-2.9609 6.6602-11.098 18.871-20.348 17.758-4.8086-0.37109-7.0312-7.0312-8.1406-11.098-1.4805-5.918-1.4805-12.949 0-19.98 0 0.73828-0.37109 1.4805-0.37109 2.2188-0.73828 6.2891 1.4805 12.211 5.5508 15.539 2.9609 2.2188 6.6602 3.3281 10.359 2.5898 5.1797-0.73828 10.359-4.4414 13.688-9.6211 0-0.37109 0.37109-0.37109 0.37109-0.73828-0.37109 1.4805-0.73828 2.5898-1.1094 3.332z" fill="#05462f"/>
 <g clip-path="url(#a)">
  <path d="m609.09 356.39-1.8516-14.801-2.5898-14.801c-1.1094-5.5508-1.8516-10.73-2.9609-16.281 5.918-1.8516 10.359-7.3984 10.359-14.059 0-7.0312-4.8086-12.949-11.469-14.43 0.37109-0.73828 1.1094-1.1094 1.4805-1.8516l2.2188-2.9609c1.1094-1.1094 0-2.2188 0.37109-2.9609v-23.68l-14.801 5.918v17.391c0.37109 1.1094-0.73828 2.2188 0.37109 2.9609l2.2188 2.9609c0.37109 0.73828 1.1094 1.1094 1.4805 1.8516-6.6602 1.4805-11.469 7.3984-11.469 14.43 0 6.6602 4.4414 12.211 10.359 14.059-1.1094 5.5508-2.2188 10.73-2.9609 16.281l-2.5898 14.801-1.8516 14.801c-0.73828 4.8086-1.8516 9.9883-2.9609 14.801-1.1094 4.8086-1.1094 9.9883 0 14.801 0.73828 4.8086 2.2188 9.9883 4.4414 14.801 2.2188 4.8086 4.8086 9.9883 8.8789 14.801h2.9609c4.0703-4.8086 7.0312-9.9883 8.8789-14.801 2.2188-4.8086 3.3281-9.9883 4.4414-14.801 0.73828-4.8086 0.73828-9.9883 0-14.801-0.73828-4.8086-2.2188-9.25-2.957-14.43z" fill="#05462f"/>
 </g>
</svg>
